# Blender v2.76 (sub 0) OBJ File: ''
# www.blender.org
mtllib arrow.mtl
o Plane
v 0.410536 0.014492 1.024220
v 0.410536 0.014492 -0.975780
v 1.002146 0.014492 -0.975780
v -0.352462 0.014492 1.024220
v -0.352462 0.014492 -0.975780
v 0.029037 0.014492 1.024220
v 0.029037 0.014492 -0.975780
v -0.944072 0.014492 -0.975780
v 0.029037 0.014492 -1.979724
v 0.410536 0.387562 1.024220
v 0.410536 0.387562 -0.975780
v 1.002146 0.387562 -0.975780
v -0.352462 0.387562 1.024220
v -0.352462 0.387562 -0.975780
v 0.029037 0.387562 1.024220
v 0.029037 0.387562 -0.975780
v -0.944072 0.387562 -0.975780
v 0.029037 0.387562 -1.979724
vn 0.000000 -1.000000 0.000000
vn 0.000000 1.000000 0.000000
vn 1.000000 0.000000 0.000000
vn 0.000000 0.000000 1.000000
vn -1.000000 0.000000 0.000000
vn 0.718000 0.000000 -0.696000
vn -0.718000 0.000000 -0.696000
usemtl None
s off
f 6//1 7//1 2//1 1//1
f 7//1 9//1 3//1 2//1
f 6//1 4//1 5//1 7//1
f 7//1 5//1 8//1 9//1
f 15//2 10//2 11//2 16//2
f 16//2 11//2 12//2 18//2
f 15//2 16//2 14//2 13//2
f 16//2 18//2 17//2 14//2
f 1//3 2//3 11//3 10//3
f 8//4 5//4 14//4 17//4
f 5//5 4//5 13//5 14//5
f 3//6 9//6 18//6 12//6
f 2//4 3//4 12//4 11//4
f 9//7 8//7 17//7 18//7
f 6//4 1//4 10//4 15//4
f 4//4 6//4 15//4 13//4
